<svg width="500" height="500" viewBox="0 0 500 500" fill="none" xmlns="http://www.w3.org/2000/svg">
<g clip-path="url(#clip0_54_610)">
<rect width="500" height="500" fill="#1A1B1F"/>
<circle cx="89.5" cy="73.5" r="3.5" fill="white"/>
<circle cx="365.5" cy="130.5" r="3.5" fill="white"/>
<circle cx="396.5" cy="409.5" r="3.5" fill="white"/>
<circle cx="146.5" cy="346.5" r="3.5" fill="white" fill-opacity="0.5"/>
<path fill-rule="evenodd" clip-rule="evenodd" d="M262 25H237V100H200V250H175V300H150V200H125V300V325V350H100V375H75V275H50V400H75H100H125H175V425H238V475H263V425H325V400H375H400H425H450V275H425V375H400V350H375V325V300V200H350V300H325V250H300V100H262V25Z" fill="white"/>
<path fill-rule="evenodd" clip-rule="evenodd" d="M300 375H325V400H350V425V450H325H300V412.5V375Z" fill="#ED3548"/>
<path fill-rule="evenodd" clip-rule="evenodd" d="M175 375H200V412.5V450H175H150V425V400H175V375Z" fill="#ED3548"/>
<rect x="350" y="425" width="25" height="25" transform="rotate(90 350 425)" fill="#FDB600"/>
<rect x="325" y="425" width="25" height="25" transform="rotate(90 325 425)" fill="#FDB600"/>
<rect x="200" y="426" width="25" height="25" transform="rotate(90 200 426)" fill="#FDB600"/>
<rect x="175" y="426" width="25" height="25" transform="rotate(90 175 426)" fill="#FDB600"/>
<path fill-rule="evenodd" clip-rule="evenodd" d="M237 275H262V300H287V325V350H262V325H237V350H212V325V300H237V275Z" fill="#BFE2FD"/>
<rect x="125" y="325" width="25" height="12.5" fill="#BFE2FD"/>
<rect x="125" y="337.5" width="25" height="12.5" fill="#BFE2FD"/>
<rect x="350" y="325" width="25" height="12.5" fill="#BFE2FD"/>
<rect x="350" y="337.5" width="25" height="12.5" fill="#BFE2FD"/>
<rect x="325" y="300" width="25" height="12.5" fill="#BFE2FD"/>
<rect x="325" y="312.5" width="25" height="12.5" fill="#BFE2FD"/>
<rect x="150" y="300" width="25" height="12.5" fill="#BFE2FD"/>
<rect x="150" y="312.5" width="25" height="12.5" fill="#BFE2FD"/>
<rect x="425" y="275" width="25" height="25" fill="#ED3548"/>
<rect x="425" y="300" width="25" height="25" fill="#ED3548"/>
<rect x="350" y="200" width="25" height="25" fill="#ED3548"/>
<rect x="350" y="225" width="25" height="25" fill="#ED3548"/>
<rect x="50" y="275" width="25" height="25" fill="#ED3548"/>
<rect x="50" y="300" width="25" height="25" fill="#ED3548"/>
<rect x="125" y="200" width="25" height="25" fill="#ED3548"/>
<rect x="125" y="225" width="25" height="25" fill="#ED3548"/>
</g>
<defs>
<clipPath id="clip0_54_610">
<rect width="500" height="500" fill="white"/>
</clipPath>
</defs>
</svg>
